<svg id="Layer_1" data-name="Layer 1" xmlns="http://www.w3.org/2000/svg" viewBox="0 0 500 500"><g id="Group_36" data-name="Group 36"><path id="Path_89" data-name="Path 89" d="M0,0H500V500H0Z" fill="#fec600"/></g><path d="M196.65,134.22q20.44-13.17,50.23-13.17,39.15,0,65,18.71t25.89,55.42q0,22.51-11.23,37.93Q320,242.47,301.36,257l-12.26,9.52q-10,7.8-13.3,18.19-2.07,6.58-2.24,20.43H226.62q1-29.27,5.52-40.44T255.28,239l12.61-9.87a44.33,44.33,0,0,0,10-10.22,34.94,34.94,0,0,0,6.9-21,40.43,40.43,0,0,0-7.69-24q-7.68-10.83-28.07-10.83-20.06,0-28.43,13.34a51.43,51.43,0,0,0-8.38,27.71H162.19Q164.26,154.82,196.65,134.22Zm28.76,194.67h51.78V379H225.41Z"/></svg>