<svg id="Layer_1" data-name="Layer 1" xmlns="http://www.w3.org/2000/svg" xmlns:xlink="http://www.w3.org/1999/xlink" viewBox="0 0 500 500"><defs><clipPath id="clip-path"><polygon points="-520 -0.08 -20 -0.08 -520 499.92 -520 -0.08" fill="none"/></clipPath><clipPath id="clip-path-2"><rect x="-520" y="-0.29" width="500" height="500" fill="none"/></clipPath></defs><g clip-path="url(#clip-path)"><g id="Mask_Group_12" data-name="Mask Group 12"><g id="Group_104" data-name="Group 104"><g clip-path="url(#clip-path-2)"><g id="Mask_Group_10" data-name="Mask Group 10"><g id="Group_99" data-name="Group 99"><rect x="-575.31" y="-60.93" width="708.09" height="1380.74" fill="none"/><g id="Repeat_Grid_1" data-name="Repeat Grid 1"><path id="Path_110" data-name="Path 110" d="M-575.31-83h85.94l63.76,43.09H-317l55.77,37.7h100.79l62.36,42.14H-2.23L46.78,73h75.16" fill="none" stroke="#a09f9e" stroke-linecap="round" stroke-linejoin="round" stroke-width="14"/><path id="Path_110-2" data-name="Path 110-2" d="M-575.31,7.87h85.94L-425.61,51H-317l55.77,37.7h100.79l62.36,42.14H-2.23l49,33.12h75.16" fill="none" stroke="#a09f9e" stroke-linecap="round" stroke-linejoin="round" stroke-width="14"/><path id="Path_110-3" data-name="Path 110-3" d="M-575.31,98.78h85.94l63.76,43.09H-317l55.77,37.69h100.79l62.36,42.15H-2.23l49,33.12h75.16" fill="none" stroke="#a09f9e" stroke-linecap="round" stroke-linejoin="round" stroke-width="14"/><path id="Path_110-4" data-name="Path 110-4" d="M-575.31,189.69h85.94l63.76,43.09H-317l55.77,37.69h100.79l62.36,42.15H-2.23l49,33.12h75.16" fill="none" stroke="#a09f9e" stroke-linecap="round" stroke-linejoin="round" stroke-width="14"/><path id="Path_110-5" data-name="Path 110-5" d="M-575.31,280.59h85.94l63.76,43.1H-317l55.77,37.69h100.79l62.36,42.15H-2.23l49,33.12h75.16" fill="none" stroke="#a09f9e" stroke-linecap="round" stroke-linejoin="round" stroke-width="14"/><path id="Path_110-6" data-name="Path 110-6" d="M-575.31,371.5h85.94l63.76,43.1H-317l55.77,37.69h100.79l62.36,42.15H-2.23l49,33.12h75.16" fill="none" stroke="#a09f9e" stroke-linecap="round" stroke-linejoin="round" stroke-width="14"/><path id="Path_110-7" data-name="Path 110-7" d="M-575.31,462.41h85.94l63.76,43.1H-317l55.77,37.69h100.79l62.36,42.15H-2.23l49,33.12h75.16" fill="none" stroke="#a09f9e" stroke-linecap="round" stroke-linejoin="round" stroke-width="14"/></g><path id="Path_114" data-name="Path 114" d="M59.22,464.35h5.85V422.59H59.22V412.46H83.36L96,453.79l12.32-41.33h24.07v10.13h-6.79v41.76h6.79v9.84H115.12V426.47l-13.9,47.72H90L75.38,426.47v47.72H59.22Z" fill="#a09f9e"/></g></g></g></g></g></g><g id="Group_36" data-name="Group 36"><path id="Path_89" data-name="Path 89" d="M0,0H500V500H0Z" fill="#fec600"/></g><path id="Icon_metro-cross" data-name="Icon metro-cross" d="M307.35,285.45h0L271.91,250l35.44-35.45h0a3.66,3.66,0,0,0,0-5.16l-16.74-16.75a3.67,3.67,0,0,0-5.17,0h0L250,228.09l-35.46-35.45h0a3.67,3.67,0,0,0-5.17,0l-16.75,16.75a3.66,3.66,0,0,0,0,5.16h0L228.08,250l-35.45,35.45h0a3.66,3.66,0,0,0,0,5.16l16.75,16.75a3.66,3.66,0,0,0,5.16,0h0L250,271.91l35.45,35.44h0a3.64,3.64,0,0,0,5.16,0l16.75-16.74a3.66,3.66,0,0,0,0-5.16Z"/><g id="Ellipse_12" data-name="Ellipse 12"><circle cx="250" cy="250" r="140.15" fill="none"/><circle cx="250" cy="250" r="126.89" fill="none" stroke="#000" stroke-width="25"/></g></svg>