<svg id="Layer_1" data-name="Layer 1" xmlns="http://www.w3.org/2000/svg" xmlns:xlink="http://www.w3.org/1999/xlink" viewBox="0 0 500 500"><defs><clipPath id="clip-path"><polygon points="520 -0.08 1020 -0.08 520 499.92 520 -0.08" fill="none"/></clipPath><clipPath id="clip-path-2"><rect x="520" y="-0.29" width="500" height="500" fill="none"/></clipPath></defs><path id="Path_89" data-name="Path 89" d="M0,0H500L0,500Z" fill="#89ad6f"/><path id="Path_90" data-name="Path 90" d="M500,500H0L500,0Z" fill="#4f694d"/><g clip-path="url(#clip-path)"><g id="Mask_Group_12" data-name="Mask Group 12"><g id="Group_104" data-name="Group 104"><g clip-path="url(#clip-path-2)"><g id="Mask_Group_10" data-name="Mask Group 10"><g id="Group_99" data-name="Group 99"><rect x="464.69" y="-60.93" width="708.09" height="1380.74" fill="none"/><g id="Repeat_Grid_1" data-name="Repeat Grid 1"><path id="Path_110" data-name="Path 110" d="M464.69-83h85.94l63.76,43.09H723l55.77,37.7H879.52l62.36,42.14h95.89l49,33.13h75.16" fill="none" stroke="#a09f9e" stroke-linecap="round" stroke-linejoin="round" stroke-width="14"/><path id="Path_110-2" data-name="Path 110-2" d="M464.69,7.87h85.94L614.39,51H723l55.77,37.7H879.52l62.36,42.14h95.89l49,33.12h75.16" fill="none" stroke="#a09f9e" stroke-linecap="round" stroke-linejoin="round" stroke-width="14"/><path id="Path_110-3" data-name="Path 110-3" d="M464.69,98.78h85.94l63.76,43.09H723l55.77,37.69H879.52l62.36,42.15h95.89l49,33.12h75.16" fill="none" stroke="#a09f9e" stroke-linecap="round" stroke-linejoin="round" stroke-width="14"/><path id="Path_110-4" data-name="Path 110-4" d="M464.69,189.69h85.94l63.76,43.09H723l55.77,37.69H879.52l62.36,42.15h95.89l49,33.12h75.16" fill="none" stroke="#a09f9e" stroke-linecap="round" stroke-linejoin="round" stroke-width="14"/><path id="Path_110-5" data-name="Path 110-5" d="M464.69,280.59h85.94l63.76,43.1H723l55.77,37.69H879.52l62.36,42.15h95.89l49,33.12h75.16" fill="none" stroke="#a09f9e" stroke-linecap="round" stroke-linejoin="round" stroke-width="14"/><path id="Path_110-6" data-name="Path 110-6" d="M464.69,371.5h85.94l63.76,43.1H723l55.77,37.69H879.52l62.36,42.15h95.89l49,33.12h75.16" fill="none" stroke="#a09f9e" stroke-linecap="round" stroke-linejoin="round" stroke-width="14"/><path id="Path_110-7" data-name="Path 110-7" d="M464.69,462.41h85.94l63.76,43.1H723l55.77,37.69H879.52l62.36,42.15h95.89l49,33.12h75.16" fill="none" stroke="#a09f9e" stroke-linecap="round" stroke-linejoin="round" stroke-width="14"/></g><path id="Path_115" data-name="Path 115" d="M482,346.44h5.84V304.69H482V294.55h24.13l12.62,41.33,12.33-41.33h24.07v10.14h-6.8v41.75h6.8v9.85H537.9V308.56L524,356.29H512.75l-14.59-47.73v47.73H482Z" fill="#a09f9e"/></g></g></g></g></g></g></svg>