<svg id="Layer_1" data-name="Layer 1" xmlns="http://www.w3.org/2000/svg" viewBox="0 0 500 500"><g id="Group_36" data-name="Group 36"><path id="Path_89" data-name="Path 89" d="M0,0H500V500H0Z" fill="#fec600"/></g><g id="Group_61" data-name="Group 61"><g id="Rectangle_43" data-name="Rectangle 43"><path d="M240.39,79.29H260a19.62,19.62,0,0,1,19.63,19.62v321.8H220.77V98.91A19.61,19.61,0,0,1,240.39,79.29Z" fill="#707070"/><path d="M240.39,81.25H260a17.66,17.66,0,0,1,17.66,17.66V416.79a2,2,0,0,1-2,2h-51a2,2,0,0,1-2-2V98.91A17.66,17.66,0,0,1,240.39,81.25Z" fill="none" stroke="#707070"/></g><rect id="Rectangle_46" data-name="Rectangle 46" x="202.7" y="136.58" width="94.19" height="51.02" rx="15.7" fill="#707070"/><rect id="Rectangle_47" data-name="Rectangle 47" x="234.1" y="93.41" width="31.4" height="31.4" rx="7.85" fill="#fec600"/><line id="Line_9" data-name="Line 9" x1="311" y1="135.19" x2="193.43" y2="135.19" fill="none" stroke="#fec600" stroke-width="3"/><line id="Line_10" data-name="Line 10" x1="263.6" y1="188.21" x2="200.81" y2="188.21" fill="none" stroke="#fec600" stroke-width="3"/><line id="Line_10-2" data-name="Line 10" x1="296.6" y1="188.21" x2="233.81" y2="188.21" fill="none" stroke="#fec600" stroke-width="3"/></g></svg>