<svg id="Layer_1" data-name="Layer 1" xmlns="http://www.w3.org/2000/svg" viewBox="0 0 500 500"><g id="Group_36" data-name="Group 36"><path id="Path_89" data-name="Path 89" d="M0,0H500V500H0Z" fill="#fec600"/></g><g id="Ellipse_12" data-name="Ellipse 12"><circle cx="250" cy="250" r="140.15" fill="none"/><circle cx="250" cy="250" r="126.89" fill="none" stroke="#000" stroke-width="25"/></g><path id="Icon_awesome-check" data-name="Icon awesome-check" d="M227.84,299.72l-44.9-44.9a6.9,6.9,0,0,1,0-9.77h0l9.77-9.8a6.9,6.9,0,0,1,9.77,0h0l30.25,30.26,64.78-64.8a6.9,6.9,0,0,1,9.77,0h0l9.76,9.79a6.9,6.9,0,0,1,0,9.77h0l-79.44,79.44a6.91,6.91,0,0,1-9.77,0Z"/></svg>