<svg id="Layer_1" data-name="Layer 1" xmlns="http://www.w3.org/2000/svg" xmlns:xlink="http://www.w3.org/1999/xlink" viewBox="0 0 500 500"><defs><clipPath id="clip-path"><polygon points="0 -0.08 500 -0.08 0 499.92 0 -0.08" fill="none"/></clipPath><clipPath id="clip-path-2"><rect y="-0.29" width="500" height="500" fill="none"/></clipPath></defs><g clip-path="url(#clip-path)"><g id="Mask_Group_12" data-name="Mask Group 12"><g id="Group_104" data-name="Group 104"><rect id="Rectangle_56" data-name="Rectangle 56" y="-0.29" width="500" height="500" fill="#403f3d"/><g clip-path="url(#clip-path-2)"><g id="Mask_Group_10" data-name="Mask Group 10"><g id="Group_99" data-name="Group 99"><rect x="-55.31" y="-60.93" width="708.09" height="1380.74" fill="none"/><g id="Repeat_Grid_1" data-name="Repeat Grid 1"><path id="Path_110" data-name="Path 110" d="M-55.31-83H30.63L94.39-39.95H203l55.77,37.7H359.52l62.36,42.14h95.89l49,33.13h75.16" fill="none" stroke="#a09f9e" stroke-linecap="round" stroke-linejoin="round" stroke-width="14"/><path id="Path_110-2" data-name="Path 110-2" d="M-55.31,7.87H30.63L94.39,51H203l55.77,37.7H359.52l62.36,42.14h95.89l49,33.12h75.16" fill="none" stroke="#a09f9e" stroke-linecap="round" stroke-linejoin="round" stroke-width="14"/><path id="Path_110-3" data-name="Path 110-3" d="M-55.31,98.78H30.63l63.76,43.09H203l55.77,37.69H359.52l62.36,42.15h95.89l49,33.12h75.16" fill="none" stroke="#a09f9e" stroke-linecap="round" stroke-linejoin="round" stroke-width="14"/><path id="Path_110-4" data-name="Path 110-4" d="M-55.31,189.69H30.63l63.76,43.09H203l55.77,37.69H359.52l62.36,42.15h95.89l49,33.12h75.16" fill="none" stroke="#a09f9e" stroke-linecap="round" stroke-linejoin="round" stroke-width="14"/><path id="Path_110-5" data-name="Path 110-5" d="M-55.31,280.59H30.63l63.76,43.1H203l55.77,37.69H359.52l62.36,42.15h95.89l49,33.12h75.16" fill="none" stroke="#a09f9e" stroke-linecap="round" stroke-linejoin="round" stroke-width="14"/><path id="Path_110-6" data-name="Path 110-6" d="M-55.31,371.5H30.63l63.76,43.1H203l55.77,37.69H359.52l62.36,42.15h95.89l49,33.12h75.16" fill="none" stroke="#a09f9e" stroke-linecap="round" stroke-linejoin="round" stroke-width="14"/><path id="Path_110-7" data-name="Path 110-7" d="M-55.31,462.41H30.63l63.76,43.1H203l55.77,37.69H359.52l62.36,42.15h95.89l49,33.12h75.16" fill="none" stroke="#a09f9e" stroke-linecap="round" stroke-linejoin="round" stroke-width="14"/></g><path id="Path_111" data-name="Path 111" d="M118.2,482.11h5.85V440.35H118.2V430.22h24.14L155,471.55l12.32-41.33h24.07v10.13h-6.79v41.76h6.79V492H174.1V444.23L160.2,492H149l-14.59-47.73V492H118.2Z" fill="#a09f9e"/><path id="Path_115" data-name="Path 115" d="M-38,346.44h5.84V304.69H-38V294.55h24.13l12.62,41.33,12.33-41.33H35.16v10.14h-6.8v41.75h6.8v9.85H17.9V308.56L4,356.29H-7.25l-14.59-47.73v47.73H-38Z" fill="#a09f9e"/><path id="Path_112" data-name="Path 112" d="M280.12,248.5H286V206.75h-5.85V196.61h24.13l12.63,41.33,12.32-41.33h24.07v10.14h-6.79V248.5h6.79v9.85H336V210.62l-13.9,47.73H310.87l-14.59-47.73v47.73H280.12Z" fill="#a09f9e"/><path id="Path_113" data-name="Path 113" d="M109.41,117.28h5.84V75.52h-5.84V65.38h24.13l12.62,41.34,12.33-41.34h24.07V75.52h-6.79v41.76h6.79v9.84H165.3V79.4l-13.89,47.72H140.16L125.56,79.4v47.72H109.4Z" fill="#a09f9e"/><path id="Path_116" data-name="Path 116" d="M439,378.64h5.84V336.88H439V326.75h24.13l12.62,41.33L488,326.75H512.1v10.13h-6.79v41.76h6.79v9.85H494.85V340.76L481,388.49H469.7l-14.59-47.73v47.73H439Z" fill="#a09f9e"/></g></g></g></g></g></g><path id="Path_90" data-name="Path 90" d="M500,499.92H0L500-.08Z" fill="#2c2c2c"/><path d="M390.15,468.07v-78H500v78c-.45,0-.91-.09-1.36-.09H391.79C391.24,468,390.7,468,390.15,468.07Zm80.91-15.75V417c1.64-.13,3.2.08,4.79-.13v-8.37H455.57q-5.11,17.42-10.21,34.71h-.25l-10.39-34.7H414.36v8.39c1.62.18,3.17-.06,4.68.16v35.17c-1.63.23-3.19-.11-4.71.21v8.36h14.19v-40l.28,0,11.85,40h9.1q5.92-20.16,11.84-40.2l.28.05v40.14h14v-8.46Z" fill="#fdc500"/><path d="M390.15,468.07c.55,0,1.09-.09,1.64-.09H498.64c.45,0,.91.06,1.36.09v31.85H390.15Zm32.73,4-2,8.05-.25,0-1.95-8h-4.3V484a8.56,8.56,0,0,0,2.72-.18v-7.6l.23,0,2.08,7.77h2.68l2-7.63.32,0v7.59h2.78V472.08Zm29.39,0V483.9h2.93v-4.11a3.22,3.22,0,0,1,1.82,0l2.29,4.1h3.4l-2.6-4.61c1.73-1.1,2.18-1.69,2.29-2.93.22-2.48-1-4.11-3.51-4.29C456.71,471.92,454.52,472,452.27,472Zm17.94-.22c-3.15-.25-6,2.08-6.1,6.11a6,6,0,1,0,12,.2C476.13,474.51,473.58,471.65,470.21,471.82Zm-37.39,2.64c1.92-.21,3.82.08,5.73-.18,0-.48,0-.84,0-1.2s.12-.74-.18-1h-8.51v11.83h8.59a5.66,5.66,0,0,0,0-2.42h-5.67a11.13,11.13,0,0,1,.16-2.64h5.19a7.28,7.28,0,0,0,0-2.33c-1.77-.15-3.54.1-5.27-.14Zm17.11-2.35h-9.16v2.21c1,.2,2.05-.12,3.1.23v9.34h3.06v-9.44c1.09-.16,2.05.07,3-.16A6.93,6.93,0,0,0,449.93,472.11Z" fill="#010101"/><path d="M471.06,452.32h4.8v8.46h-14V420.64l-.28-.05q-5.91,20.07-11.84,40.2h-9.1l-11.85-40-.28,0v40H414.33v-8.36c1.52-.32,3.08,0,4.71-.21V417.06c-1.51-.22-3.06,0-4.68-.16v-8.39h20.36l10.39,34.7h.25q5.1-17.33,10.21-34.71h20.28v8.37c-1.59.21-3.15,0-4.79.13Z" fill="#010101"/><path d="M422.88,472.08h4.28v11.83h-2.78v-7.59l-.32,0-2,7.63H419.4l-2.08-7.77-.23,0v7.6a8.56,8.56,0,0,1-2.72.18V472.1h4.3l1.95,8,.25,0Z" fill="#f4f4f4"/><path d="M452.27,472c2.25,0,4.44-.12,6.62,0,2.5.18,3.73,1.81,3.51,4.29-.11,1.24-.56,1.83-2.29,2.93l2.6,4.61h-3.4L457,479.8a3.22,3.22,0,0,0-1.82,0v4.11h-2.93Zm3,2.36a18,18,0,0,0,.07,3,19.51,19.51,0,0,0,3.28-.12c1.11-1.15,1.1-1.74-.06-2.9Z" fill="#f4f4f4"/><path d="M470.21,471.82c3.37-.17,5.92,2.69,5.87,6.31a6,6,0,1,1-12-.2C464.23,473.9,467.06,471.57,470.21,471.82Zm-3,6.09a5.24,5.24,0,0,0,.42,2.14,2.77,2.77,0,0,0,2.61,1.66c1.55-.06,2.73-1.41,2.86-3.29.15-2.15-.84-3.79-2.44-4.05C468.53,474.05,467.19,475.43,467.16,477.91Z" fill="#f4f4f4"/><path d="M432.82,474.46v1.93c1.73.24,3.5,0,5.27.14a7.28,7.28,0,0,1,0,2.33h-5.19a11.13,11.13,0,0,0-.16,2.64h5.67a5.66,5.66,0,0,1,0,2.42h-8.59V472.09h8.51c.3.25.16.64.18,1s0,.72,0,1.2C436.64,474.54,434.74,474.25,432.82,474.46Z" fill="#f4f4f4"/><path d="M449.93,472.11a6.93,6.93,0,0,1,0,2.18c-.94.23-1.9,0-3,.16v9.44h-3.06v-9.34c-1.05-.35-2.07,0-3.1-.23v-2.21Z" fill="#f4f4f4"/><path d="M455.23,474.4h3.29c1.16,1.16,1.17,1.75.06,2.9a19.51,19.51,0,0,1-3.28.12A18,18,0,0,1,455.23,474.4Z" fill="#010101"/><path d="M467.17,477.91c0-2.48,1.36-3.86,3.44-3.54,1.6.26,2.59,1.9,2.44,4.05-.13,1.88-1.31,3.23-2.86,3.29a2.77,2.77,0,0,1-2.61-1.66A5.07,5.07,0,0,1,467.17,477.91Z" fill="#010101"/></svg>