<?xml version="1.0" encoding="UTF-8"?>
<svg xmlns="http://www.w3.org/2000/svg" xmlns:xlink="http://www.w3.org/1999/xlink" width="85pt" height="22pt" viewBox="0 0 85 22" version="1.1">
<g id="surface1">
<path style=" stroke:none;fill-rule:nonzero;fill:rgb(100%,100%,100%);fill-opacity:1;" d="M 39.367188 13.386719 C 39.277344 14.136719 38.871094 14.902344 38.144531 15.675781 C 37.117188 16.789062 35.722656 17.402344 33.957031 17.507812 L 33.957031 14.8125 C 34.453125 14.761719 34.925781 14.570312 35.316406 14.257812 C 35.597656 14.015625 35.828125 13.71875 35.996094 13.386719 Z M 39.367188 13.386719 "/>
<path style=" stroke:none;fill-rule:nonzero;fill:rgb(100%,100%,100%);fill-opacity:1;" d="M 57.054688 17.128906 L 53.753906 17.128906 L 53.753906 0 L 57.054688 0 Z M 57.054688 17.128906 "/>
<path style=" stroke:none;fill-rule:nonzero;fill:rgb(100%,100%,100%);fill-opacity:1;" d="M 64.796875 9.421875 C 65.246094 9.382812 65.6875 9.289062 66.113281 9.132812 C 66.53125 9.011719 66.820312 8.628906 66.824219 8.191406 C 66.871094 7.757812 66.65625 7.339844 66.277344 7.117188 C 65.777344 6.890625 65.226562 6.789062 64.679688 6.820312 C 63.886719 6.820312 63.328125 7.015625 63 7.402344 C 62.746094 7.742188 62.582031 8.140625 62.53125 8.5625 L 59.347656 8.5625 C 59.375 7.582031 59.699219 6.628906 60.277344 5.832031 C 61.152344 4.71875 62.65625 4.160156 64.789062 4.160156 C 66.070312 4.136719 67.335938 4.417969 68.484375 4.984375 C 69.5625 5.535156 70.101562 6.574219 70.101562 8.097656 L 70.101562 13.910156 C 70.101562 14.3125 70.109375 14.800781 70.125 15.375 C 70.117188 15.679688 70.183594 15.984375 70.320312 16.257812 C 70.445312 16.425781 70.613281 16.558594 70.808594 16.640625 L 70.808594 17.128906 L 67.21875 17.128906 C 67.125 16.894531 67.054688 16.65625 67.011719 16.40625 C 66.972656 16.183594 66.941406 15.925781 66.917969 15.640625 C 66.457031 16.140625 65.921875 16.566406 65.332031 16.90625 C 64.59375 17.324219 63.757812 17.535156 62.914062 17.523438 C 61.875 17.5625 60.859375 17.210938 60.066406 16.542969 C 59.316406 15.886719 58.941406 14.960938 58.941406 13.757812 C 58.941406 12.203125 59.542969 11.074219 60.75 10.378906 C 61.410156 9.996094 62.382812 9.726562 63.664062 9.5625 Z M 66.8125 10.96875 C 66.609375 11.097656 66.398438 11.203125 66.171875 11.289062 C 65.886719 11.386719 65.589844 11.464844 65.289062 11.515625 L 64.535156 11.652344 C 64.007812 11.722656 63.496094 11.875 63.019531 12.105469 C 62.511719 12.386719 62.207031 12.933594 62.238281 13.511719 C 62.195312 13.972656 62.371094 14.425781 62.714844 14.738281 C 63.046875 14.992188 63.453125 15.128906 63.871094 15.113281 C 64.585938 15.117188 65.28125 14.898438 65.863281 14.488281 C 66.472656 14.070312 66.785156 13.304688 66.808594 12.199219 Z M 66.8125 10.96875 "/>
<path style=" stroke:none;fill-rule:nonzero;fill:rgb(100%,100%,100%);fill-opacity:1;" d="M 83.582031 5.984375 C 84.527344 7.183594 85 8.734375 85 10.632812 C 85 12.601562 84.535156 14.230469 83.605469 15.523438 C 82.074219 17.480469 79.355469 18.035156 77.183594 16.835938 C 76.695312 16.480469 76.277344 16.039062 75.949219 15.535156 L 75.949219 17.128906 L 72.695312 17.128906 L 72.695312 0.0234375 L 75.996094 0.0234375 L 75.996094 6.113281 C 76.363281 5.574219 76.832031 5.113281 77.382812 4.761719 C 78.070312 4.351562 78.863281 4.148438 79.664062 4.183594 C 81.332031 4.183594 82.640625 4.785156 83.582031 5.984375 Z M 80.828125 13.699219 C 81.335938 12.886719 81.582031 11.941406 81.539062 10.980469 C 81.5625 10.222656 81.441406 9.464844 81.1875 8.75 C 80.84375 7.703125 79.839844 7.015625 78.738281 7.078125 C 77.636719 7.007812 76.621094 7.675781 76.25 8.714844 C 75.996094 9.4375 75.875 10.203125 75.902344 10.96875 C 75.863281 11.921875 76.117188 12.863281 76.625 13.667969 C 77.105469 14.378906 77.839844 14.734375 78.828125 14.734375 C 79.628906 14.765625 80.386719 14.371094 80.828125 13.699219 Z M 80.828125 13.699219 "/>
<path style=" stroke:none;fill-rule:nonzero;fill:rgb(100%,100%,100%);fill-opacity:1;" d="M 4.207031 7.847656 C 3.6875 8.53125 3.425781 9.507812 3.425781 10.777344 C 3.425781 12.046875 3.6875 13.027344 4.207031 13.714844 C 4.589844 14.234375 5.160156 14.582031 5.796875 14.691406 L 5.796875 17.503906 C 3.953125 17.382812 2.554688 16.730469 1.597656 15.542969 C -0.53125 12.730469 -0.53125 8.84375 1.597656 6.03125 C 2.554688 4.828125 3.953125 4.167969 5.796875 4.042969 L 5.796875 6.878906 C 5.164062 6.984375 4.59375 7.332031 4.207031 7.847656 Z M 4.207031 7.847656 "/>
<path style=" stroke:none;fill-rule:nonzero;fill:rgb(100%,100%,100%);fill-opacity:1;" d="M 12.894531 10.777344 C 12.9375 12.503906 12.375 14.191406 11.296875 15.542969 C 10.351562 16.71875 8.964844 17.367188 7.144531 17.496094 L 7.144531 14.671875 C 7.753906 14.554688 8.292969 14.210938 8.660156 13.710938 C 9.175781 13.023438 9.433594 12.042969 9.433594 10.777344 C 9.433594 9.507812 9.175781 8.53125 8.65625 7.847656 C 8.289062 7.351562 7.75 7.007812 7.144531 6.890625 L 7.144531 4.042969 C 8.964844 4.175781 10.347656 4.835938 11.296875 6.027344 C 12.363281 7.375 12.929688 9.054688 12.894531 10.777344 Z M 12.894531 10.777344 "/>
<path style=" stroke:none;fill-rule:nonzero;fill:rgb(100%,100%,100%);fill-opacity:1;" d="M 17.339844 8.75 C 17.082031 9.488281 16.964844 10.269531 16.988281 11.050781 C 16.988281 12.523438 17.378906 13.554688 18.167969 14.152344 C 18.496094 14.398438 18.882812 14.5625 19.289062 14.628906 L 19.289062 17.257812 C 18.886719 17.136719 18.511719 16.949219 18.175781 16.699219 C 17.753906 16.355469 17.390625 15.941406 17.101562 15.476562 L 17.101562 22.078125 L 13.839844 22.078125 L 13.839844 4.425781 L 17 4.425781 L 17 6.296875 C 17.304688 5.804688 17.691406 5.363281 18.140625 4.996094 C 18.488281 4.730469 18.875 4.519531 19.289062 4.378906 L 19.289062 7.082031 C 18.367188 7.234375 17.71875 7.789062 17.339844 8.75 Z M 17.339844 8.75 "/>
<path style=" stroke:none;fill-rule:nonzero;fill:rgb(100%,100%,100%);fill-opacity:1;" d="M 26.082031 10.34375 L 26.082031 10.863281 C 26.042969 12.964844 25.542969 14.578125 24.578125 15.699219 C 23.617188 16.847656 22.1875 17.492188 20.691406 17.453125 C 20.671875 17.453125 20.65625 17.453125 20.636719 17.453125 L 20.636719 14.570312 C 21.175781 14.417969 21.644531 14.078125 21.953125 13.605469 C 22.4375 12.894531 22.683594 11.945312 22.683594 10.761719 C 22.699219 9.851562 22.46875 8.953125 22.011719 8.167969 C 21.710938 7.652344 21.214844 7.277344 20.636719 7.136719 L 20.636719 4.152344 C 20.679688 4.152344 20.726562 4.148438 20.773438 4.148438 C 22.207031 4.125 23.578125 4.722656 24.542969 5.785156 C 25.53125 6.835938 26.042969 8.355469 26.082031 10.34375 Z M 26.082031 10.34375 "/>
<path style=" stroke:none;fill-rule:nonzero;fill:rgb(100%,100%,100%);fill-opacity:1;" d="M 31.308594 7.542969 C 30.8125 8.085938 30.507812 8.773438 30.429688 9.503906 L 32.609375 9.503906 L 32.609375 11.691406 L 30.347656 11.691406 C 30.398438 12.960938 30.839844 13.851562 31.667969 14.363281 C 31.957031 14.542969 32.277344 14.671875 32.609375 14.746094 L 32.609375 17.484375 C 31.265625 17.351562 29.992188 16.824219 28.953125 15.964844 C 27.667969 14.925781 27.027344 13.234375 27.027344 10.894531 C 27.027344 8.699219 27.605469 7.015625 28.765625 5.847656 C 29.789062 4.816406 31.160156 4.199219 32.609375 4.117188 L 32.609375 6.878906 C 32.117188 6.953125 31.660156 7.1875 31.308594 7.542969 Z M 31.308594 7.542969 "/>
<path style=" stroke:none;fill-rule:nonzero;fill:rgb(100%,100%,100%);fill-opacity:1;" d="M 39.539062 11.039062 L 39.539062 11.316406 C 39.539062 11.4375 39.539062 11.5625 39.539062 11.691406 L 33.957031 11.691406 L 33.957031 9.503906 L 36.113281 9.503906 C 36.132812 8.222656 35.222656 7.109375 33.957031 6.886719 L 33.957031 4.117188 C 34.746094 4.171875 35.519531 4.363281 36.242188 4.683594 C 37.132812 5.089844 37.890625 5.738281 38.421875 6.558594 C 38.953125 7.34375 39.296875 8.238281 39.429688 9.175781 C 39.507812 9.792969 39.546875 10.414062 39.539062 11.039062 Z M 39.539062 11.039062 "/>
<path style=" stroke:none;fill-rule:nonzero;fill:rgb(100%,100%,100%);fill-opacity:1;" d="M 45.5 4.515625 L 45.5 7.003906 C 44.855469 7.199219 44.339844 7.679688 44.097656 8.308594 C 43.863281 8.921875 43.753906 9.578125 43.777344 10.238281 L 43.777344 17.09375 L 40.484375 17.09375 L 40.484375 4.449219 L 43.671875 4.449219 L 43.671875 6.296875 C 43.992188 5.765625 44.398438 5.289062 44.871094 4.890625 C 45.066406 4.742188 45.277344 4.617188 45.5 4.515625 Z M 45.5 4.515625 "/>
<path style=" stroke:none;fill-rule:nonzero;fill:rgb(100%,100%,100%);fill-opacity:1;" d="M 51.867188 8.5625 L 51.867188 17.09375 L 48.488281 17.09375 L 48.488281 9.386719 C 48.515625 8.863281 48.425781 8.339844 48.222656 7.855469 C 47.960938 7.320312 47.4375 6.964844 46.847656 6.910156 L 46.847656 4.152344 C 47.042969 4.132812 47.242188 4.125 47.441406 4.125 C 48.59375 4.078125 49.722656 4.441406 50.628906 5.152344 C 51.453125 5.839844 51.867188 6.976562 51.867188 8.5625 Z M 51.867188 8.5625 "/>
</g>
</svg>
