<?xml version="1.0" encoding="UTF-8" standalone="no"?>
<svg
   xmlns:dc="http://purl.org/dc/elements/1.1/"
   xmlns:cc="http://creativecommons.org/ns#"
   xmlns:rdf="http://www.w3.org/1999/02/22-rdf-syntax-ns#"
   xmlns:svg="http://www.w3.org/2000/svg"
   xmlns="http://www.w3.org/2000/svg"
   xmlns:sodipodi="http://sodipodi.sourceforge.net/DTD/sodipodi-0.dtd"
   xmlns:inkscape="http://www.inkscape.org/namespaces/inkscape"
   sodipodi:docname="openlabLogoBlack.svg"
   inkscape:version="1.0 (4035a4f, 2020-05-01)"
   id="svg89"
   version="1.1"
   viewBox="0 0 39.160831 10.125075"
   height="10.125075mm"
   width="39.160831mm">
  <defs
     id="defs83" />
  <sodipodi:namedview
     inkscape:window-maximized="0"
     inkscape:window-y="23"
     inkscape:window-x="2240"
     inkscape:window-height="1174"
     inkscape:window-width="1252"
     inkscape:pagecheckerboard="true"
     showgrid="false"
     inkscape:document-rotation="0"
     inkscape:current-layer="layer1"
     inkscape:document-units="mm"
     inkscape:cy="-136.60202"
     inkscape:cx="414.7824"
     inkscape:zoom="1.0188932"
     inkscape:pageshadow="2"
     inkscape:pageopacity="1"
     borderopacity="1.0"
     bordercolor="#666666"
     pagecolor="#ffffff"
     id="base" />
  <metadata
     id="metadata86">
    <rdf:RDF>
      <cc:Work
         rdf:about="">
        <dc:format>image/svg+xml</dc:format>
        <dc:type
           rdf:resource="http://purl.org/dc/dcmitype/StillImage" />
        <dc:title></dc:title>
      </cc:Work>
    </rdf:RDF>
  </metadata>
  <g
     transform="translate(-0.72665731,-0.58749879)"
     id="layer1"
     inkscape:groupmode="layer"
     inkscape:label="Layer 1">
    <g
       transform="matrix(0.26458333,0,0,0.26458333,0.72730138,0.58749879)"
       id="g50">
      <path
         d="m 408.926,1194.95 a 7.168,7.168 0 0 1 -2.129,3.968 10.3,10.3 0 0 1 -7.286,3.174 v -4.673 a 4.494,4.494 0 0 0 2.368,-0.958 4.842,4.842 0 0 0 1.183,-1.511 z"
         transform="translate(-340.385,-1171.747)"
         id="path18" />
      <path
         d="m 638.159,1067.766 h -5.744 v -29.689 h 5.744 z"
         transform="translate(-538.819,-1038.077)"
         id="path20" />
      <path
         d="m 703.637,1095.951 a 9.083,9.083 0 0 0 2.294,-0.5 1.727,1.727 0 0 0 1.239,-1.632 1.929,1.929 0 0 0 -0.95,-1.863 6,6 0 0 0 -2.788,-0.514 3.663,3.663 0 0 0 -2.922,1.007 4.151,4.151 0 0 0 -0.817,2.014 h -5.543 a 8.4,8.4 0 0 1 1.619,-4.733 q 2.287,-2.9 7.854,-2.9 a 14.008,14.008 0 0 1 6.437,1.43 q 2.814,1.43 2.814,5.4 v 10.071 q 0,1.047 0.04,2.538 a 3.183,3.183 0 0 0 0.343,1.531 2.053,2.053 0 0 0 0.846,0.665 v 0.846 h -6.248 a 6.384,6.384 0 0 1 -0.363,-1.249 q -0.1,-0.584 -0.161,-1.329 a 11.859,11.859 0 0 1 -2.757,2.2 8.334,8.334 0 0 1 -4.216,1.067 7.278,7.278 0 0 1 -4.956,-1.7 6.05,6.05 0 0 1 -1.956,-4.824 6.25,6.25 0 0 1 3.147,-5.861 14.068,14.068 0 0 1 5.076,-1.41 z m 3.512,2.679 a 6.336,6.336 0 0 1 -1.114,0.554 9.416,9.416 0 0 1 -1.542,0.393 l -1.307,0.242 a 8.591,8.591 0 0 0 -2.64,0.786 2.621,2.621 0 0 0 -1.357,2.437 2.546,2.546 0 0 0 0.829,2.125 3.152,3.152 0 0 0 2.016,0.654 6.006,6.006 0 0 0 3.469,-1.088 q 1.586,-1.088 1.647,-3.968 z"
         transform="translate(-590.816,-1079.616)"
         id="path22" />
      <path
         d="m 874.2,1048.682 a 12.613,12.613 0 0 1 2.465,8.057 14.107,14.107 0 0 1 -2.431,8.48 8.828,8.828 0 0 1 -11.182,2.276 8.742,8.742 0 0 1 -2.147,-2.256 V 1068 h -5.663 v -29.649 h 5.744 v 10.549 a 8.406,8.406 0 0 1 2.414,-2.336 7.208,7.208 0 0 1 3.976,-1.007 8.213,8.213 0 0 1 6.824,3.125 z m -4.8,13.374 a 8.131,8.131 0 0 0 1.24,-4.713 10.541,10.541 0 0 0 -0.61,-3.867 4.245,4.245 0 0 0 -4.267,-2.9 4.309,4.309 0 0 0 -4.328,2.84 10.571,10.571 0 0 0 -0.61,3.907 8.127,8.127 0 0 0 1.26,4.673 4.326,4.326 0 0 0 3.84,1.853 3.985,3.985 0 0 0 3.475,-1.793 z"
         transform="translate(-728.67,-1038.309)"
         id="path24" />
      <g
         transform="translate(0,7.007)"
         id="g30">
        <path
           d="m 7.335,1092.046 a 10.177,10.177 0 0 0 0,10.167 4.351,4.351 0 0 0 2.765,1.687 v 4.875 a 9.735,9.735 0 0 1 -7.312,-3.394 13.614,13.614 0 0 1 0,-16.492 9.675,9.675 0 0 1 7.312,-3.444 v 4.913 a 4.357,4.357 0 0 0 -2.765,1.688 z"
           transform="translate(-0.009,-1085.45)"
           id="path26" />
        <path
           d="m 94.082,1097.153 a 12.7,12.7 0 0 1 -2.782,8.262 9.7,9.7 0 0 1 -7.229,3.387 v -4.893 a 4.309,4.309 0 0 0 2.634,-1.667 10.244,10.244 0 0 0 0,-10.167 4.312,4.312 0 0 0 -2.634,-1.659 v -4.932 a 9.649,9.649 0 0 1 7.229,3.439 12.788,12.788 0 0 1 2.782,8.23 z"
           transform="translate(-71.631,-1085.479)"
           id="path28" />
      </g>
      <g
         transform="translate(24.096,7.191)"
         id="g36">
        <path
           d="m 168.915,1097 a 11.109,11.109 0 0 0 -0.611,3.988 q 0,3.828 2.055,5.378 a 4.511,4.511 0 0 0 1.952,0.828 v 4.556 a 6.229,6.229 0 0 1 -1.938,-0.974 8.468,8.468 0 0 1 -1.866,-2.115 v 11.439 h -5.683 v -30.6 h 5.5 v 3.242 a 9.228,9.228 0 0 1 1.988,-2.256 6.969,6.969 0 0 1 2,-1.066 v 4.684 a 4.26,4.26 0 0 0 -3.397,2.896 z"
           transform="translate(-162.823,-1089.023)"
           id="path32" />
        <path
           d="m 252.271,1097.434 v 0.9 q -0.1,5.463 -2.622,8.382 a 8.53,8.53 0 0 1 -6.764,3.041 h -0.1 v -4.995 a 4.053,4.053 0 0 0 2.29,-1.671 9.7,9.7 0 0 0 0.1,-9.426 3.786,3.786 0 0 0 -2.391,-1.788 v -5.177 c 0.079,0 0.159,0 0.238,0 a 8.687,8.687 0 0 1 6.561,2.84 q 2.586,2.719 2.688,7.894 z"
           transform="translate(-230.954,-1086.693)"
           id="path34" />
      </g>
      <g
         transform="translate(47.057,7.137)"
         id="g42">
        <path
           d="m 325.419,1092.267 a 5.962,5.962 0 0 0 -1.53,3.4 h 3.8 v 3.787 h -3.936 q 0.133,3.3 2.3,4.632 a 5.228,5.228 0 0 0 1.64,0.666 v 4.744 a 11.864,11.864 0 0 1 -6.368,-2.633 q -3.353,-2.7 -3.353,-8.79 0,-5.705 3.027,-8.749 a 10.281,10.281 0 0 1 6.694,-3 v 4.785 a 4.086,4.086 0 0 0 -2.274,1.158 z"
           transform="translate(-317.963,-1086.327)"
           id="path38" />
        <path
           d="m 409.232,1098.324 v 0.482 q 0,0.314 -0.006,0.647 h -9.715 v -3.787 h 3.752 a 4.54,4.54 0 0 0 -3.752,-4.542 v -4.8 a 11.969,11.969 0 0 1 3.979,0.982 8.944,8.944 0 0 1 3.8,3.249 10.776,10.776 0 0 1 1.75,4.538 23.262,23.262 0 0 1 0.192,3.231 z"
           transform="translate(-387.442,-1086.327)"
           id="path40" />
      </g>
      <g
         transform="translate(70.492,7.15)"
         id="g48">
        <path
           d="m 485.037,1090.34 v 4.312 a 3.81,3.81 0 0 0 -2.438,2.264 8.569,8.569 0 0 0 -0.56,3.344 v 11.884 h -5.73 v -21.915 h 5.55 v 3.2 a 9.714,9.714 0 0 1 2.086,-2.437 6.092,6.092 0 0 1 1.092,-0.652 z"
           transform="translate(-476.308,-1089.665)"
           id="path44" />
        <path
           d="m 559.891,1094.112 v 14.788 h -5.885 v -13.354 a 6.132,6.132 0 0 0 -0.46,-2.659 2.974,2.974 0 0 0 -2.4,-1.637 v -4.777 a 10,10 0 0 1 1.036,-0.052 8.424,8.424 0 0 1 5.549,1.783 q 2.159,1.778 2.16,5.908 z"
           transform="translate(-540.073,-1086.417)"
           id="path46" />
      </g>
    </g>
  </g>
</svg>
