<?xml version="1.0" encoding="UTF-8" standalone="no"?>
<svg
   xmlns:dc="http://purl.org/dc/elements/1.1/"
   xmlns:cc="http://creativecommons.org/ns#"
   xmlns:rdf="http://www.w3.org/1999/02/22-rdf-syntax-ns#"
   xmlns:svg="http://www.w3.org/2000/svg"
   xmlns="http://www.w3.org/2000/svg"
   xmlns:sodipodi="http://sodipodi.sourceforge.net/DTD/sodipodi-0.dtd"
   xmlns:inkscape="http://www.inkscape.org/namespaces/inkscape"
   id="Group_21"
   data-name="Group 21"
   width="186.451"
   height="17.219"
   viewBox="0 0 186.451 17.219"
   version="1.1"
   sodipodi:docname="stadlerBlack.svg"
   inkscape:version="0.92.4 (5da689c313, 2019-01-14)">
  <metadata
     id="metadata14">
    <rdf:RDF>
      <cc:Work
         rdf:about="">
        <dc:format>image/svg+xml</dc:format>
        <dc:type
           rdf:resource="http://purl.org/dc/dcmitype/StillImage" />
        <dc:title></dc:title>
      </cc:Work>
    </rdf:RDF>
  </metadata>
  <defs
     id="defs12" />
  <sodipodi:namedview
     pagecolor="#ffffff"
     bordercolor="#666666"
     borderopacity="1"
     objecttolerance="10"
     gridtolerance="10"
     guidetolerance="10"
     inkscape:pageopacity="0"
     inkscape:pageshadow="2"
     inkscape:window-width="1920"
     inkscape:window-height="1017"
     id="namedview10"
     showgrid="false"
     inkscape:zoom="1.5231884"
     inkscape:cx="-18.71075"
     inkscape:cy="8.6095001"
     inkscape:window-x="-8"
     inkscape:window-y="0"
     inkscape:window-maximized="1"
     inkscape:current-layer="Group_21" />
  <path
     id="Path_44"
     data-name="Path 44"
     d="M3542.6,3601.3v4.161h-18.217v2.237h16.827v3.919h-16.773c-.041.8-.072,1.432-.119,2.355h18.27v4.26H3518.6V3601.3Z"
     transform="translate(-3385.264 -3601.132)"
     style="stroke:#ffffff;stroke-opacity:1;fill:#000000;fill-opacity:1" />
  <path
     id="Path_45"
     data-name="Path 45"
     d="M3144.032,3606.1c-2.156-.161-4.256.7-6.2-.708a2.718,2.718,0,0,0-1.46-.222c-3.11-.022-6.22-.058-9.329,0-.858.016-2.191-.232-2.2,1.137s1.264,1.125,2.163,1.131c4.054.026,8.109-.042,12.162.041a5.208,5.208,0,0,1,4.884,7.348,4.754,4.754,0,0,1-4.691,3.117q-7.661.155-15.327.006c-3.332-.067-5.5-2.356-5.278-5.446,1.7,0,3.405,0,5.115,0,.164,0,.4-.009.479.088,1.226,1.525,2.941,1.031,4.5,1.066,2.443.056,4.887.019,7.331.01a4.115,4.115,0,0,0,1.48-.118c.383-.156.937-.65.9-.916a1.808,1.808,0,0,0-.887-1.148,3.422,3.422,0,0,0-1.474-.11c-3.832,0-7.668-.1-11.5.034-4.188.145-6.784-3.975-4.886-7.9a4.207,4.207,0,0,1,3.908-2.644c5.054-.05,10.109-.1,15.161.01A5.057,5.057,0,0,1,3144.032,3606.1Z"
     transform="translate(-3118.745 -3600.81)"
     style="stroke:#ffffff;stroke-opacity:1;fill:#000000;fill-opacity:1" />
  <path
     id="Path_46"
     data-name="Path 46"
     d="M3358.557,3600.931c6.741,0,13.341,0,19.941,0a3.343,3.343,0,0,1,.655.093,7.343,7.343,0,0,1,6.277,6.221c.781,3.946-.374,7.706-3.22,9.469a7.48,7.48,0,0,1-3.531,1.279c-6.655.122-13.312.059-20.122.059Zm5.681,12.7c4.258,0,8.35.056,12.439-.032a2.9,2.9,0,0,0,2.645-2.214c1.168-3.392-.661-6.089-4.216-6.141-3.164-.045-6.329-.015-9.494,0a12.008,12.008,0,0,0-1.375.168Z"
     transform="translate(-3278.589 -3600.886)"
     style="stroke:#ffffff;stroke-opacity:1;fill:#000000;fill-opacity:1" />
  <path
     id="Path_47"
     data-name="Path 47"
     d="M3627.682,3618.034c-1.727,0-3.276.065-4.812-.048-.362-.027-.868-.61-.974-1.023a15.4,15.4,0,0,1-.105-2.153,2.057,2.057,0,0,0-2.173-2.058c-3.332-.042-6.666.006-10-.028-.935-.01-1.305.354-1.281,1.271.034,1.27.009,2.541.009,3.926h-5.78V3601c.5-.035.978-.1,1.459-.1,5.666-.007,11.331-.023,17,.015a11.7,11.7,0,0,1,2.95.414,4.478,4.478,0,0,1,3.554,3.937,4.229,4.229,0,0,1-1.912,4.3c-.167.119-.318.262-.668.556C3628.32,3611.96,3627.192,3615.133,3627.682,3618.034Zm-19.237-12.25a5.055,5.055,0,0,0-.049,1.637c.128.414.612,1.016.948,1.022,3.719.069,7.44.059,11.159.016a1.411,1.411,0,0,0,.016-2.812,5.576,5.576,0,0,0-.661-.076q-5.164-.012-10.328,0A6.29,6.29,0,0,0,3608.446,3605.784Z"
     transform="translate(-3441.231 -3600.862)"
     style="stroke:#ffffff;stroke-opacity:1;fill:#000000;fill-opacity:1" />
  <path
     id="Path_48"
     data-name="Path 48"
     d="M3294.058,3617.973c-1.874,0-3.652-.06-5.424.023-1,.047-1.406-.579-1.775-1.245a2.674,2.674,0,0,0-2.747-1.4c-3.166.077-6.335.055-9.5.006a2.384,2.384,0,0,0-2.506,1.208,2.654,2.654,0,0,1-2.877,1.438c-1.491-.115-3-.026-4.671-.026a8.215,8.215,0,0,1,.483-1.029c3.241-4.915,6.516-9.807,9.722-14.745a2.525,2.525,0,0,1,2.542-1.392c1.66.113,3.335-.02,5,.06a1.912,1.912,0,0,1,1.348.66c3.482,5.285,6.91,10.606,10.345,15.923C3294.048,3617.53,3294.024,3617.659,3294.058,3617.973Zm-10.866-6.781-3.7-5.624-3.66,5.624Z"
     transform="translate(-3215.934 -3600.798)"
     style="stroke:#ffffff;stroke-opacity:1;fill:#000000;fill-opacity:1" />
  <path
     id="Path_49"
     data-name="Path 49"
     d="M3215.9,3618.292h-5.466c-.038-.605-.1-1.188-.107-1.771-.012-3.163-.045-6.327.01-9.489.021-1.16-.415-1.579-1.548-1.555-2.163.045-4.328.016-6.492,0-.593,0-1.186-.07-1.871-.114v-4.046h25.314v4.167h-3.588c-1.5,0-3,.065-4.494-.016-1.224-.067-1.669.353-1.639,1.607.072,3.05.032,6.1.018,9.156C3216.036,3616.879,3215.955,3617.525,3215.9,3618.292Z"
     transform="translate(-3173.189 -3601.145)"
     style="stroke:#ffffff;stroke-opacity:1;fill:#000000;fill-opacity:1" />
  <path
     id="Path_50"
     data-name="Path 50"
     d="M3446.422,3618.138v-16.885h5.705v12.686H3467.4v4.2Z"
     transform="translate(-3337.154 -3601.101)"
     style="stroke:#ffffff;stroke-opacity:1;fill:#000000;fill-opacity:1" />
</svg>
